<svg width="16" height="16" viewBox="0 0 16 16" fill="none" xmlns="http://www.w3.org/2000/svg">
<mask id="mask0_1510_1142" style="mask-type:alpha" maskUnits="userSpaceOnUse" x="0" y="0" width="16" height="16">
<rect width="16" height="16" fill="#D9D9D9"/>
</mask>
<g mask="url(#mask0_1510_1142)">
<path d="M7.24984 12.8666L2.84984 8.46662C2.78317 8.39995 2.73595 8.32773 2.70817 8.24995C2.68039 8.17217 2.6665 8.08884 2.6665 7.99995C2.6665 7.91106 2.68039 7.82773 2.70817 7.74995C2.73595 7.67217 2.78317 7.59995 2.84984 7.53328L7.24984 3.13328C7.37206 3.01106 7.52484 2.94717 7.70817 2.94162C7.8915 2.93606 8.04984 2.99995 8.18317 3.13328C8.3165 3.25551 8.38595 3.40828 8.3915 3.59162C8.39706 3.77495 8.33317 3.93328 8.19984 4.06662L4.93317 7.33328H12.3832C12.5721 7.33328 12.7304 7.39717 12.8582 7.52495C12.9859 7.65273 13.0498 7.81106 13.0498 7.99995C13.0498 8.18884 12.9859 8.34717 12.8582 8.47495C12.7304 8.60273 12.5721 8.66662 12.3832 8.66662H4.93317L8.19984 11.9333C8.32206 12.0555 8.38595 12.2111 8.3915 12.4C8.39706 12.5888 8.33317 12.7444 8.19984 12.8666C8.07762 13 7.92206 13.0666 7.73317 13.0666C7.54428 13.0666 7.38317 13 7.24984 12.8666Z" fill="white"/>
</g>
</svg>
