<svg width="41" height="41" viewBox="0 0 41 41" fill="none" xmlns="http://www.w3.org/2000/svg">
<path opacity="0.1" d="M0 6C0 2.68629 2.68629 0 6 0H35C38.3137 0 41 2.68629 41 6V35C41 38.3137 38.3137 41 35 41H6C2.68629 41 0 38.3137 0 35V6Z" fill="#008000"/>
<g clip-path="url(#clip0_1782_318)">
<path d="M15.5502 30.7507C24.6045 30.7507 29.5583 23.2474 29.5583 16.7426C29.5583 16.5317 29.5536 16.316 29.5442 16.1051C30.5079 15.4082 31.3395 14.545 32 13.556C31.1025 13.9553 30.1496 14.2161 29.1739 14.3295C30.2013 13.7136 30.9705 12.7462 31.3391 11.6065C30.3726 12.1793 29.3156 12.5833 28.2134 12.8013C27.4708 12.0123 26.489 11.4898 25.4197 11.3148C24.3504 11.1397 23.2532 11.3218 22.2977 11.8328C21.3423 12.3439 20.5818 13.1554 20.1338 14.142C19.6859 15.1287 19.5754 16.2353 19.8195 17.291C17.8625 17.1928 15.9479 16.6844 14.2 15.7988C12.452 14.9132 10.9097 13.6702 9.67297 12.1502C9.0444 13.234 8.85206 14.5164 9.13503 15.7368C9.418 16.9573 10.1551 18.0242 11.1964 18.7207C10.4146 18.6959 9.64998 18.4854 8.96563 18.1067V18.1676C8.96492 19.3049 9.3581 20.4073 10.0783 21.2875C10.7985 22.1677 11.8013 22.7713 12.9162 22.9957C12.1921 23.1939 11.432 23.2227 10.6948 23.0801C11.0095 24.0582 11.6216 24.9136 12.4458 25.5271C13.27 26.1405 14.2651 26.4813 15.2923 26.502C13.5484 27.8718 11.3942 28.6149 9.17656 28.6113C8.78329 28.6107 8.3904 28.5866 8 28.5392C10.2529 29.9845 12.8735 30.7521 15.5502 30.7507Z" fill="#008000"/>
</g>
<defs>
<clipPath id="clip0_1782_318">
<rect width="24" height="24" fill="white" transform="translate(8 9)"/>
</clipPath>
</defs>
</svg>
