<svg width="42" height="38" viewBox="0 0 42 38" fill="none" xmlns="http://www.w3.org/2000/svg">
<path d="M23.0469 9.375C23.0469 6.77083 23.9258 4.55729 25.6836 2.73438C27.4414 0.911458 29.6224 0 32.2266 0C34.9609 0 37.207 0.878906 38.9648 2.63672C40.7227 4.45964 41.6016 7.03125 41.6016 10.3516C41.6016 12.8906 41.276 15.3971 40.625 17.8711C39.974 20.3451 39.0951 22.7214 37.9883 25C36.8815 27.3438 35.612 29.5247 34.1797 31.543C32.7474 33.5612 31.2174 35.3841 29.5898 37.0117L24.4141 32.8125C26.3021 30.7943 27.9948 28.6458 29.4922 26.3672C30.9245 24.0885 31.901 21.4844 32.4219 18.5547C30.7292 18.5547 29.2969 18.2943 28.125 17.7734C26.888 17.2526 25.9115 16.5365 25.1953 15.625C24.4141 14.7786 23.8607 13.8021 23.5352 12.6953C23.2096 11.6536 23.0469 10.5469 23.0469 9.375ZM0 9.375C0 6.77083 0.878906 4.55729 2.63672 2.73438C4.39453 0.911458 6.57552 0 9.17969 0C11.9141 0 14.1927 0.878906 16.0156 2.63672C17.7734 4.45964 18.6523 7.03125 18.6523 10.3516C18.6523 12.8906 18.3268 15.3971 17.6758 17.8711C17.0247 20.3451 16.1458 22.7214 15.0391 25C13.9323 27.3438 12.6628 29.5247 11.2305 31.543C9.73307 33.5612 8.20312 35.3841 6.64062 37.0117L1.36719 32.8125C3.25521 30.7943 4.94792 28.6458 6.44531 26.3672C7.8776 24.0885 8.85417 21.4844 9.375 18.5547C7.68229 18.5547 6.25 18.2943 5.07812 17.7734C3.90625 17.2526 2.96224 16.5365 2.24609 15.625C1.46484 14.7786 0.911458 13.8021 0.585938 12.6953C0.195312 11.6536 0 10.5469 0 9.375Z" fill="#008000"/>
</svg>
