<svg width="341" height="348" viewBox="0 0 341 348" fill="none" xmlns="http://www.w3.org/2000/svg">
<path d="M1 0V139.5C1 171 24.6001 198.5 99.0001 198.5C173.4 198.5 230 198.5 266 198.5C302 198.5 339.5 217.2 339.5 272C339.5 326.8 339.5 299.333 339.5 348" stroke="#008000" stroke-width="2"/>
<rect x="125" y="187" width="26" height="23" rx="2" fill="#008000"/>
<rect x="128" y="190" width="20" height="17" rx="2" fill="#006300"/>
<mask id="mask0_1619_1706" style="mask-type:alpha" maskUnits="userSpaceOnUse" x="130" y="191" width="16" height="16">
<rect width="16" height="16" transform="matrix(-1 0 0 1 146 191)" fill="#D9D9D9"/>
</mask>
<g mask="url(#mask0_1619_1706)">
<path d="M138.75 203.867L143.15 199.467C143.217 199.4 143.264 199.328 143.292 199.25C143.32 199.172 143.333 199.089 143.333 199C143.333 198.911 143.32 198.828 143.292 198.75C143.264 198.672 143.217 198.6 143.15 198.533L138.75 194.133C138.628 194.011 138.475 193.947 138.292 193.942C138.108 193.936 137.95 194 137.817 194.133C137.683 194.256 137.614 194.408 137.608 194.592C137.603 194.775 137.667 194.933 137.8 195.067L141.067 198.333H133.617C133.428 198.333 133.27 198.397 133.142 198.525C133.014 198.653 132.95 198.811 132.95 199C132.95 199.189 133.014 199.347 133.142 199.475C133.27 199.603 133.428 199.667 133.617 199.667H141.067L137.8 202.933C137.678 203.056 137.614 203.211 137.608 203.4C137.603 203.589 137.667 203.744 137.8 203.867C137.922 204 138.078 204.067 138.267 204.067C138.456 204.067 138.617 204 138.75 203.867Z" fill="white"/>
</g>
</svg>
