<svg width="365" height="365" viewBox="0 0 365 365" fill="none" xmlns="http://www.w3.org/2000/svg">
<rect width="365" height="365" rx="6" transform="matrix(-1 0 0 1 365 0)" fill="#008000"/>
<rect width="297" height="297" rx="6" transform="matrix(-1 0 0 1 331 34)" fill="#007500"/>
<g opacity="0.75">
<path d="M225.123 196.002H140.14C140.006 196.002 139.874 196.029 139.752 196.082C139.63 196.135 139.52 196.213 139.429 196.311C139.338 196.408 139.269 196.524 139.225 196.65C139.181 196.776 139.163 196.909 139.174 197.042V222.597C139.163 222.73 139.181 222.863 139.225 222.989C139.269 223.115 139.338 223.23 139.429 223.328C139.52 223.426 139.63 223.504 139.752 223.557C139.874 223.61 140.006 223.637 140.14 223.637H225.123C225.257 223.637 225.389 223.61 225.511 223.557C225.633 223.504 225.743 223.426 225.834 223.328C225.925 223.23 225.994 223.115 226.038 222.989C226.082 222.863 226.1 222.73 226.089 222.597V197.042C226.1 196.909 226.082 196.776 226.038 196.65C225.994 196.524 225.925 196.408 225.834 196.311C225.743 196.213 225.633 196.135 225.511 196.082C225.389 196.029 225.257 196.002 225.123 196.002Z" fill="#016E01"/>
<path d="M225.123 141.624H140.14C140.006 141.624 139.874 141.651 139.752 141.704C139.63 141.757 139.52 141.835 139.429 141.933C139.338 142.031 139.269 142.146 139.225 142.272C139.181 142.398 139.163 142.531 139.174 142.664V168.219C139.163 168.352 139.181 168.485 139.225 168.611C139.269 168.737 139.338 168.853 139.429 168.95C139.52 169.048 139.63 169.126 139.752 169.179C139.874 169.232 140.006 169.259 140.14 169.259H225.123C225.257 169.259 225.389 169.232 225.511 169.179C225.633 169.126 225.743 169.048 225.834 168.95C225.925 168.853 225.994 168.737 226.038 168.611C226.082 168.485 226.1 168.352 226.089 168.219V142.664C226.1 142.531 226.082 142.398 226.038 142.272C225.994 142.146 225.925 142.031 225.834 141.933C225.743 141.835 225.633 141.757 225.511 141.704C225.389 141.651 225.257 141.624 225.123 141.624Z" fill="#016E01"/>
<path d="M223.935 102.996L183.152 62.2123C183.013 62.0762 182.826 62 182.632 62C182.438 62 182.251 62.0762 182.112 62.2123L141.329 102.996C141.211 103.087 141.126 103.215 141.089 103.359C141.052 103.504 141.065 103.657 141.124 103.793C141.184 103.93 141.288 104.042 141.419 104.113C141.55 104.184 141.702 104.209 141.849 104.184H223.564C223.698 104.175 223.826 104.125 223.932 104.042C224.037 103.958 224.115 103.845 224.155 103.717C224.195 103.588 224.196 103.451 224.157 103.322C224.117 103.194 224.04 103.08 223.935 102.996Z" fill="#016E01"/>
<path d="M262.267 223.934L303.05 183.151C303.186 183.012 303.263 182.825 303.263 182.631C303.263 182.436 303.186 182.25 303.05 182.111L262.267 141.327C262.176 141.209 262.048 141.125 261.903 141.088C261.759 141.051 261.606 141.063 261.47 141.123C261.333 141.183 261.22 141.287 261.149 141.418C261.078 141.549 261.053 141.7 261.078 141.847V223.563C261.088 223.697 261.137 223.825 261.221 223.931C261.304 224.036 261.417 224.114 261.546 224.154C261.674 224.194 261.812 224.195 261.94 224.155C262.069 224.116 262.183 224.039 262.267 223.934Z" fill="#016E01"/>
<path d="M141.329 262.266L182.112 303.05C182.251 303.186 182.438 303.262 182.632 303.262C182.827 303.262 183.014 303.186 183.152 303.05L223.936 262.266C224.054 262.175 224.138 262.047 224.175 261.903C224.212 261.758 224.2 261.606 224.14 261.469C224.08 261.332 223.977 261.22 223.845 261.149C223.714 261.078 223.563 261.053 223.416 261.078H141.7C141.566 261.087 141.438 261.137 141.333 261.22C141.227 261.304 141.149 261.417 141.109 261.545C141.069 261.674 141.069 261.811 141.108 261.94C141.147 262.068 141.224 262.182 141.329 262.266Z" fill="#016E01"/>
<path d="M102.996 141.327L62.2124 182.11C62.0763 182.249 62 182.436 62 182.63C62 182.825 62.0763 183.011 62.2124 183.15L102.996 223.934C103.087 224.052 103.215 224.136 103.359 224.173C103.504 224.21 103.657 224.198 103.793 224.138C103.93 224.078 104.042 223.974 104.113 223.843C104.184 223.712 104.209 223.561 104.184 223.414V141.698C104.175 141.564 104.125 141.436 104.042 141.33C103.958 141.225 103.845 141.147 103.717 141.107C103.588 141.067 103.451 141.066 103.322 141.106C103.194 141.145 103.08 141.222 102.996 141.327Z" fill="#016E01"/>
</g>
<path d="M202.225 188.617H162.513C162.451 188.617 162.389 188.629 162.332 188.654C162.275 188.679 162.224 188.715 162.181 188.761C162.139 188.807 162.106 188.861 162.086 188.92C162.065 188.978 162.057 189.041 162.062 189.103V201.044C162.057 201.106 162.065 201.169 162.086 201.228C162.106 201.286 162.139 201.34 162.181 201.386C162.224 201.432 162.275 201.468 162.332 201.493C162.389 201.518 162.451 201.53 162.513 201.53H202.225C202.287 201.53 202.349 201.518 202.406 201.493C202.463 201.468 202.514 201.432 202.557 201.386C202.599 201.34 202.632 201.286 202.652 201.228C202.673 201.169 202.681 201.106 202.676 201.044V189.103C202.681 189.041 202.673 188.978 202.652 188.92C202.632 188.861 202.599 188.807 202.557 188.761C202.514 188.715 202.463 188.679 202.406 188.654C202.349 188.629 202.287 188.617 202.225 188.617Z" fill="white"/>
<path d="M202.225 163.207H162.513C162.451 163.207 162.389 163.22 162.332 163.244C162.275 163.269 162.224 163.306 162.181 163.351C162.139 163.397 162.106 163.451 162.086 163.51C162.065 163.568 162.057 163.631 162.062 163.693V175.634C162.057 175.696 162.065 175.759 162.086 175.818C162.106 175.876 162.139 175.93 162.181 175.976C162.224 176.022 162.275 176.058 162.332 176.083C162.389 176.108 162.451 176.12 162.513 176.12H202.225C202.287 176.12 202.349 176.108 202.406 176.083C202.463 176.058 202.514 176.022 202.557 175.976C202.599 175.93 202.632 175.876 202.652 175.818C202.673 175.759 202.681 175.696 202.676 175.634V163.693C202.681 163.631 202.673 163.568 202.652 163.51C202.632 163.451 202.599 163.397 202.557 163.351C202.514 163.306 202.463 163.269 202.406 163.244C202.349 163.22 202.287 163.207 202.225 163.207Z" fill="white"/>
<path d="M201.67 145.157L182.612 126.099C182.547 126.036 182.46 126 182.369 126C182.278 126 182.191 126.036 182.126 126.099L163.069 145.157C163.014 145.199 162.974 145.259 162.957 145.326C162.94 145.394 162.946 145.465 162.973 145.529C163.001 145.593 163.05 145.646 163.111 145.679C163.173 145.712 163.243 145.724 163.312 145.712H201.496C201.559 145.708 201.619 145.684 201.668 145.645C201.717 145.606 201.754 145.553 201.772 145.494C201.791 145.434 201.791 145.369 201.773 145.309C201.755 145.249 201.719 145.196 201.67 145.157Z" fill="white"/>
<path d="M219.581 201.669L238.639 182.612C238.702 182.547 238.738 182.46 238.738 182.369C238.738 182.278 238.702 182.191 238.639 182.126L219.581 163.068C219.539 163.013 219.479 162.974 219.411 162.957C219.344 162.939 219.273 162.945 219.209 162.973C219.145 163.001 219.092 163.049 219.059 163.111C219.026 163.172 219.014 163.243 219.026 163.311V201.496C219.03 201.558 219.054 201.618 219.093 201.667C219.131 201.717 219.184 201.753 219.244 201.772C219.304 201.791 219.369 201.791 219.429 201.772C219.489 201.754 219.542 201.718 219.581 201.669Z" fill="white"/>
<path d="M163.069 219.581L182.127 238.638C182.191 238.702 182.279 238.738 182.369 238.738C182.46 238.738 182.548 238.702 182.613 238.638L201.67 219.581C201.725 219.538 201.764 219.479 201.782 219.411C201.799 219.344 201.793 219.272 201.765 219.208C201.737 219.145 201.689 219.092 201.628 219.059C201.566 219.026 201.496 219.014 201.427 219.026H163.243C163.18 219.03 163.12 219.053 163.071 219.092C163.021 219.131 162.985 219.184 162.966 219.244C162.948 219.304 162.947 219.368 162.966 219.428C162.984 219.489 163.02 219.542 163.069 219.581Z" fill="white"/>
<path d="M145.157 163.068L126.099 182.126C126.036 182.19 126 182.278 126 182.369C126 182.459 126.036 182.547 126.099 182.612L145.157 201.669C145.199 201.724 145.259 201.763 145.326 201.781C145.394 201.798 145.465 201.792 145.529 201.764C145.593 201.736 145.646 201.688 145.679 201.627C145.712 201.565 145.724 201.495 145.712 201.426V163.242C145.708 163.179 145.684 163.119 145.645 163.07C145.606 163.021 145.553 162.984 145.494 162.965C145.434 162.947 145.369 162.946 145.309 162.965C145.249 162.983 145.196 163.019 145.157 163.068Z" fill="white"/>
</svg>
