<svg width="18" height="257" viewBox="0 0 18 257" fill="none" xmlns="http://www.w3.org/2000/svg">
<path d="M9 0C9 99.9742 9.00001 156.026 9.00001 256" stroke="url(#paint0_linear_1630_2599)" stroke-width="2"/>
<rect width="20.0367" height="17.7248" rx="2" transform="matrix(0 1 1 0 0 148.963)" fill="#008000"/>
<rect width="15.4128" height="13.1009" rx="2" transform="matrix(0 1 1 0 2.31152 151.275)" fill="#006300"/>
<mask id="mask0_1630_2599" style="mask-type:alpha" maskUnits="userSpaceOnUse" x="3" y="152" width="13" height="14">
<rect x="3.08301" y="165.148" width="12.3303" height="12.3303" transform="rotate(-90 3.08301 165.148)" fill="#D9D9D9"/>
</mask>
<g mask="url(#mask0_1630_2599)">
<path d="M12.9985 159.56L9.60766 162.951C9.55629 163.003 9.50063 163.039 9.44069 163.06C9.38075 163.082 9.31653 163.093 9.24803 163.093C9.17953 163.093 9.11531 163.082 9.05537 163.06C8.99543 163.039 8.93977 163.003 8.8884 162.951L5.49757 159.56C5.40338 159.466 5.35415 159.348 5.34987 159.207C5.34558 159.066 5.39482 158.944 5.49757 158.841C5.59176 158.738 5.7095 158.685 5.85078 158.681C5.99207 158.676 6.11409 158.726 6.21684 158.828L8.73427 161.346V155.604C8.73427 155.459 8.78351 155.337 8.88198 155.238C8.98045 155.14 9.10247 155.091 9.24803 155.091C9.3936 155.091 9.51562 155.14 9.61409 155.238C9.71256 155.337 9.76179 155.459 9.76179 155.604V161.346L12.2792 158.828C12.3734 158.734 12.4933 158.685 12.6389 158.681C12.7844 158.676 12.9043 158.726 12.9985 158.828C13.1012 158.922 13.1526 159.042 13.1526 159.188C13.1526 159.334 13.1012 159.458 12.9985 159.56Z" fill="white"/>
</g>
<path d="M9 246C9 246 7.79599 249.817 6.5 252C5.22333 254.15 2 257 2 257L16 257C12.3993 253.214 10.4303 250.8 9 246Z" fill="#008000"/>
<defs>
<linearGradient id="paint0_linear_1630_2599" x1="9.5" y1="-2.12581e-08" x2="9.50001" y2="256" gradientUnits="userSpaceOnUse">
<stop stop-color="#008000" stop-opacity="0"/>
<stop offset="0.34375" stop-color="#008000"/>
<stop offset="1" stop-color="#008000"/>
</linearGradient>
</defs>
</svg>
