<svg width="41" height="41" viewBox="0 0 41 41" fill="none" xmlns="http://www.w3.org/2000/svg">
<path opacity="0.1" d="M0 6C0 2.68629 2.68629 0 6 0H35C38.3137 0 41 2.68629 41 6V35C41 38.3137 38.3137 41 35 41H6C2.68629 41 0 38.3137 0 35V6Z" fill="#008000"/>
<path d="M25 14.3333H23.7143C22.3386 14.3333 21.7857 14.6667 21.7857 15.6667V17.6667H25L24.3571 21H21.7857V31H18.5714V21H16V17.6667H18.5714V15.6667C18.5714 13 19.8571 11 22.4286 11C24.2929 11 25 11.6667 25 11.6667V14.3333Z" fill="#008000" stroke="#008000"/>
</svg>
