<svg width="365" height="365" viewBox="0 0 365 365" fill="none" xmlns="http://www.w3.org/2000/svg">
<rect width="365" height="365" rx="6" fill="#008000"/>
<rect x="34" y="34" width="297" height="297" rx="6" fill="#007500"/>
<g opacity="0.75">
<path d="M269.3 64H214.108C213.918 64 213.737 64.0753 213.602 64.2094C213.468 64.3435 213.393 64.5253 213.393 64.7149V83.0171C213.393 83.2067 213.468 83.3885 213.602 83.5226C213.737 83.6567 213.918 83.732 214.108 83.732H236.128L211.677 107.968C202.914 101.147 192.698 96.4364 181.82 94.2024C170.942 91.9684 159.696 92.2708 148.954 95.0863C138.212 97.9018 128.263 103.155 119.88 110.437C111.496 117.719 104.903 126.835 100.613 137.078C96.3221 147.32 94.4495 158.414 95.1398 169.497C95.8302 180.581 99.0649 191.356 104.593 200.987C110.122 210.618 117.795 218.845 127.017 225.031C136.24 231.217 146.764 235.194 157.772 236.655V258.103H136.324C136.134 258.103 135.953 258.178 135.819 258.312C135.684 258.446 135.609 258.628 135.609 258.818V278.478C135.609 278.668 135.684 278.85 135.819 278.984C135.953 279.118 136.134 279.193 136.324 279.193H157.772V299.998C157.79 300.175 157.873 300.338 158.005 300.457C158.137 300.576 158.309 300.642 158.487 300.641H178.147C178.325 300.642 178.497 300.576 178.629 300.457C178.761 300.338 178.844 300.175 178.862 299.998V279.193H200.31C200.5 279.193 200.681 279.118 200.815 278.984C200.95 278.85 201.025 278.668 201.025 278.478V258.818C201.025 258.628 200.95 258.446 200.815 258.312C200.681 258.178 200.5 258.103 200.31 258.103H178.862V236.655C190.94 234.665 202.315 229.64 211.92 222.051C221.525 214.463 229.045 204.559 233.776 193.269C238.506 181.979 240.292 169.672 238.965 157.503C237.638 145.334 233.242 133.702 226.19 123.696L250.284 99.6749V120.193C250.284 120.383 250.359 120.565 250.493 120.699C250.627 120.833 250.809 120.908 250.998 120.908H269.3C269.49 120.908 269.672 120.833 269.806 120.699C269.94 120.565 270.015 120.383 270.015 120.193V65.0724C270.027 64.9757 270.016 64.8777 269.984 64.7858C269.953 64.6938 269.9 64.6102 269.831 64.5414C269.763 64.4726 269.679 64.4203 269.587 64.3884C269.495 64.3565 269.397 64.346 269.3 64.3575M167.066 218.21C156.543 218.196 146.26 215.06 137.519 209.201C128.779 203.341 121.972 195.021 117.962 185.292C113.951 175.563 112.916 164.863 114.988 154.546C117.06 144.229 122.146 134.758 129.602 127.332C137.058 119.906 146.549 114.859 156.875 112.828C167.2 110.798 177.896 111.876 187.608 115.926C197.321 119.976 205.614 126.815 211.438 135.58C217.262 144.344 220.356 154.639 220.328 165.162C220.271 179.251 214.635 192.743 204.652 202.686C194.67 212.628 181.155 218.21 167.066 218.21Z" fill="#016E01"/>
<path d="M199.594 143.142H135.25C135.08 143.142 134.916 143.209 134.795 143.33C134.675 143.451 134.607 143.614 134.607 143.785V159.442C134.607 159.613 134.675 159.776 134.795 159.897C134.916 160.018 135.08 160.085 135.25 160.085H199.594C199.684 160.096 199.776 160.086 199.862 160.059C199.949 160.031 200.028 159.985 200.096 159.924C200.163 159.863 200.217 159.789 200.254 159.706C200.291 159.623 200.309 159.533 200.309 159.442V143.714C200.309 143.623 200.291 143.533 200.254 143.45C200.217 143.367 200.163 143.292 200.096 143.231C200.028 143.171 199.949 143.125 199.862 143.097C199.776 143.069 199.684 143.06 199.594 143.07" fill="#016E01"/>
<path d="M199.594 171.095H135.25C135.08 171.095 134.916 171.163 134.795 171.283C134.675 171.404 134.607 171.568 134.607 171.738V187.324C134.607 187.494 134.675 187.658 134.795 187.779C134.916 187.899 135.08 187.967 135.25 187.967H199.594C199.684 187.977 199.776 187.968 199.862 187.94C199.949 187.912 200.028 187.867 200.096 187.806C200.163 187.745 200.217 187.671 200.254 187.588C200.291 187.504 200.309 187.414 200.309 187.324V171.738C200.309 171.647 200.291 171.557 200.254 171.474C200.217 171.391 200.163 171.317 200.096 171.256C200.028 171.195 199.949 171.149 199.862 171.122C199.776 171.094 199.684 171.085 199.594 171.095Z" fill="#016E01"/>
</g>
<path d="M224.63 125H197.832C197.74 125 197.652 125.037 197.587 125.102C197.522 125.167 197.485 125.255 197.485 125.347V134.234C197.485 134.326 197.522 134.414 197.587 134.479C197.652 134.544 197.74 134.581 197.832 134.581H208.524L196.652 146.348C192.397 143.036 187.437 140.749 182.155 139.665C176.873 138.58 171.413 138.727 166.197 140.094C160.981 141.461 156.151 144.011 152.08 147.547C148.01 151.083 144.808 155.509 142.725 160.483C140.642 165.456 139.733 170.842 140.068 176.224C140.403 181.605 141.974 186.837 144.658 191.513C147.342 196.189 151.068 200.184 155.546 203.188C160.024 206.191 165.133 208.122 170.479 208.832V219.245H160.065C159.973 219.245 159.884 219.282 159.819 219.347C159.754 219.412 159.717 219.5 159.717 219.593V229.139C159.717 229.231 159.754 229.319 159.819 229.384C159.884 229.449 159.973 229.486 160.065 229.486H170.479V239.587C170.487 239.673 170.527 239.753 170.592 239.81C170.656 239.868 170.739 239.9 170.826 239.9H180.372C180.458 239.9 180.541 239.868 180.606 239.81C180.67 239.753 180.71 239.673 180.719 239.587V229.486H191.133C191.225 229.486 191.313 229.449 191.378 229.384C191.443 229.319 191.48 229.231 191.48 229.139V219.593C191.48 219.5 191.443 219.412 191.378 219.347C191.313 219.282 191.225 219.245 191.133 219.245H180.719V208.832C186.583 207.865 192.106 205.425 196.77 201.741C201.433 198.056 205.085 193.247 207.382 187.766C209.678 182.284 210.545 176.309 209.901 170.4C209.257 164.491 207.123 158.843 203.699 153.985L215.397 142.322V152.284C215.397 152.376 215.433 152.465 215.499 152.53C215.564 152.595 215.652 152.631 215.744 152.631H224.63C224.723 152.631 224.811 152.595 224.876 152.53C224.941 152.465 224.978 152.376 224.978 152.284V125.521C224.983 125.474 224.978 125.426 224.963 125.382C224.947 125.337 224.922 125.296 224.888 125.263C224.855 125.229 224.814 125.204 224.77 125.189C224.725 125.173 224.677 125.168 224.63 125.174M174.991 199.876C169.882 199.869 164.889 198.346 160.645 195.501C156.401 192.656 153.096 188.616 151.149 183.892C149.202 179.169 148.699 173.973 149.705 168.964C150.711 163.955 153.181 159.356 156.801 155.75C160.421 152.145 165.029 149.694 170.043 148.708C175.056 147.722 180.249 148.246 184.965 150.212C189.681 152.179 193.708 155.5 196.536 159.755C199.364 164.011 200.866 169.009 200.852 174.119C200.825 180.959 198.088 187.511 193.241 192.338C188.394 197.165 181.832 199.876 174.991 199.876Z" fill="white"/>
<path d="M190.785 163.427H159.543C159.461 163.427 159.381 163.46 159.322 163.518C159.264 163.577 159.231 163.656 159.231 163.739V171.341C159.231 171.424 159.264 171.504 159.322 171.562C159.381 171.621 159.461 171.654 159.543 171.654H190.785C190.829 171.659 190.873 171.654 190.915 171.641C190.957 171.627 190.996 171.605 191.029 171.575C191.061 171.546 191.088 171.51 191.105 171.469C191.123 171.429 191.132 171.385 191.132 171.341V163.704C191.132 163.66 191.123 163.617 191.105 163.576C191.088 163.536 191.061 163.5 191.029 163.47C190.996 163.441 190.957 163.419 190.915 163.405C190.873 163.392 190.829 163.387 190.785 163.392" fill="white"/>
<path d="M190.785 176.999H159.543C159.461 176.999 159.381 177.032 159.322 177.091C159.264 177.149 159.231 177.229 159.231 177.312V184.879C159.231 184.962 159.264 185.041 159.322 185.1C159.381 185.159 159.461 185.191 159.543 185.191H190.785C190.829 185.196 190.873 185.192 190.915 185.178C190.957 185.165 190.996 185.143 191.029 185.113C191.061 185.084 191.088 185.048 191.105 185.007C191.123 184.967 191.132 184.923 191.132 184.879V177.312C191.132 177.268 191.123 177.224 191.105 177.183C191.088 177.143 191.061 177.107 191.029 177.078C190.996 177.048 190.957 177.026 190.915 177.012C190.873 176.999 190.829 176.994 190.785 176.999Z" fill="white"/>
</svg>
