<svg width="365" height="365" viewBox="0 0 365 365" fill="none" xmlns="http://www.w3.org/2000/svg">
<rect width="365" height="365" rx="6" transform="matrix(-1 0 0 1 365 0)" fill="#008000"/>
<rect width="297" height="297" rx="6" transform="matrix(-1 0 0 1 331 34)" fill="#007500"/>
<g opacity="0.75">
<path d="M309.929 187.755C310.146 185.338 309.867 182.902 309.108 180.596C308.349 178.291 307.127 176.166 305.517 174.35C303.907 172.534 301.943 171.067 299.745 170.038C297.547 169.009 295.162 168.441 292.736 168.368C286.899 169.676 281.664 172.894 277.861 177.512C274.508 174.037 268.655 168.368 263.473 168.368C261.033 168.445 258.634 169.01 256.416 170.029C254.197 171.049 252.206 172.502 250.558 174.303C248.91 176.104 247.64 178.217 246.822 180.516C246.003 182.816 245.654 185.256 245.793 187.694C245.785 192.796 247.777 197.698 251.341 201.35L277.922 227.992L304.442 201.35C307.974 197.707 309.943 192.829 309.929 187.755Z" fill="#016E01"/>
<path d="M196.775 271.52H196.287C195.312 271.454 194.386 271.065 193.657 270.413C192.928 269.762 192.438 268.885 192.264 267.923L178.729 189.278L158.306 227.198C157.861 227.996 157.177 228.635 156.352 229.026C155.526 229.416 154.599 229.54 153.7 229.379C152.801 229.218 151.974 228.78 151.335 228.127C150.697 227.474 150.278 226.638 150.137 225.735L141.48 164.77L125.568 200.496C125.219 201.255 124.662 201.9 123.96 202.354C123.258 202.807 122.441 203.051 121.605 203.056H60.0299C59.4142 203.129 58.7901 203.071 58.1985 202.885C57.607 202.699 57.0615 202.39 56.598 201.978C56.1345 201.567 55.7635 201.061 55.5094 200.496C55.2554 199.93 55.124 199.317 55.124 198.697C55.124 198.077 55.2554 197.464 55.5094 196.899C55.7635 196.333 56.1345 195.828 56.598 195.416C57.0615 195.004 57.607 194.695 58.1985 194.509C58.7901 194.324 59.4142 194.265 60.0299 194.338H118.922L139.834 147.395C140.227 146.539 140.881 145.83 141.703 145.37C142.525 144.91 143.471 144.722 144.406 144.834C145.352 144.95 146.232 145.379 146.906 146.053C147.58 146.727 148.009 147.607 148.125 148.553L157.087 211.104L177.266 173.732C177.692 172.92 178.363 172.265 179.185 171.859C180.007 171.454 180.936 171.32 181.839 171.476C182.734 171.636 183.559 172.067 184.202 172.71C184.845 173.353 185.275 174.178 185.436 175.073L197.934 248.231L243.475 96.7936C243.739 95.961 244.245 95.2262 244.93 94.6832C245.614 94.1402 246.445 93.8136 247.315 93.7454C248.194 93.6435 249.082 93.8252 249.85 94.264C250.617 94.7027 251.225 95.3755 251.583 96.184L275.542 145.81C275.83 146.342 276.004 146.927 276.055 147.529C276.106 148.132 276.032 148.738 275.837 149.311C275.642 149.883 275.332 150.409 274.924 150.856C274.517 151.302 274.022 151.66 273.47 151.906C272.954 152.153 272.394 152.296 271.823 152.325C271.251 152.355 270.68 152.27 270.141 152.078C269.603 151.885 269.108 151.587 268.685 151.202C268.262 150.817 267.92 150.352 267.678 149.833L248.535 110.267L200.86 268.777C200.531 269.59 199.966 270.286 199.238 270.775C198.51 271.264 197.652 271.523 196.775 271.52Z" fill="#016E01"/>
</g>
<path d="M255.082 185.543C255.206 184.167 255.047 182.78 254.615 181.468C254.183 180.155 253.487 178.945 252.571 177.911C251.654 176.877 250.535 176.042 249.284 175.456C248.032 174.87 246.674 174.546 245.293 174.505C241.969 175.25 238.989 177.082 236.823 179.712C234.914 177.733 231.582 174.505 228.631 174.505C227.242 174.549 225.876 174.87 224.613 175.451C223.35 176.031 222.216 176.859 221.278 177.884C220.339 178.91 219.616 180.113 219.15 181.422C218.684 182.731 218.485 184.121 218.564 185.509C218.56 188.414 219.694 191.205 221.723 193.284L236.858 208.454L251.958 193.284C253.97 191.21 255.091 188.432 255.082 185.543Z" fill="white"/>
<path d="M190.654 233.238H190.377C189.821 233.201 189.294 232.979 188.879 232.608C188.464 232.237 188.185 231.738 188.086 231.19L180.379 186.411L168.751 208.002C168.497 208.456 168.108 208.82 167.638 209.043C167.168 209.265 166.64 209.335 166.128 209.244C165.616 209.152 165.145 208.903 164.781 208.531C164.418 208.159 164.179 207.683 164.099 207.169L159.17 172.456L150.11 192.798C149.911 193.231 149.594 193.598 149.194 193.856C148.794 194.114 148.329 194.253 147.853 194.256H112.793C112.443 194.297 112.087 194.264 111.751 194.158C111.414 194.053 111.103 193.877 110.839 193.642C110.575 193.408 110.364 193.12 110.219 192.798C110.075 192.476 110 192.127 110 191.774C110 191.421 110.075 191.072 110.219 190.75C110.364 190.428 110.575 190.14 110.839 189.906C111.103 189.671 111.414 189.495 111.751 189.389C112.087 189.284 112.443 189.25 112.793 189.292H146.326L158.233 162.563C158.456 162.076 158.829 161.672 159.297 161.41C159.765 161.148 160.304 161.041 160.836 161.105C161.375 161.171 161.876 161.415 162.26 161.799C162.643 162.183 162.888 162.684 162.953 163.223L168.056 198.838L179.546 177.559C179.788 177.097 180.171 176.724 180.639 176.493C181.107 176.262 181.636 176.186 182.15 176.275C182.659 176.366 183.129 176.611 183.495 176.977C183.861 177.343 184.107 177.813 184.198 178.323L191.314 219.978L217.244 133.751C217.395 133.277 217.683 132.859 218.073 132.55C218.462 132.241 218.935 132.055 219.431 132.016C219.931 131.958 220.437 132.061 220.874 132.311C221.311 132.561 221.657 132.944 221.861 133.404L235.503 161.66C235.667 161.963 235.766 162.297 235.795 162.64C235.824 162.983 235.782 163.328 235.671 163.654C235.56 163.98 235.383 164.279 235.151 164.534C234.919 164.788 234.637 164.992 234.323 165.132C234.029 165.272 233.711 165.353 233.385 165.37C233.06 165.387 232.735 165.339 232.428 165.229C232.121 165.12 231.84 164.95 231.599 164.731C231.358 164.512 231.163 164.247 231.025 163.952L220.126 141.423L192.98 231.676C192.793 232.139 192.471 232.535 192.057 232.814C191.642 233.092 191.154 233.24 190.654 233.238Z" fill="white"/>
</svg>
