<svg width="365" height="365" viewBox="0 0 365 365" fill="none" xmlns="http://www.w3.org/2000/svg">
<rect width="365" height="365" rx="6" fill="#008000"/>
<rect x="34" y="34" width="297" height="297" rx="6" fill="#007500"/>
<g opacity="0.75">
<path d="M141.65 280.155V287.069C141.688 287.847 142.019 288.582 142.577 289.126C143.134 289.669 143.877 289.982 144.656 290H222.442C223.247 289.963 224.01 289.627 224.58 289.057C225.15 288.487 225.486 287.724 225.523 286.919V279.403C246.381 272.972 265.096 260.984 279.66 244.725C294.224 228.467 304.087 208.551 308.193 187.113V186.436C308.193 185.619 307.869 184.835 307.291 184.258C306.713 183.68 305.929 183.355 305.112 183.355H59.3553C58.9444 183.345 58.5356 183.417 58.153 183.568C57.7704 183.718 57.4218 183.943 57.1277 184.231C56.8335 184.518 56.5998 184.861 56.4403 185.24C56.2808 185.618 56.1986 186.025 56.1987 186.436V187.864C60.5166 209.609 70.7616 229.737 85.8018 246.023C100.842 262.31 120.092 274.122 141.424 280.155" fill="#016E01"/>
<path d="M225.073 78.4388C224.021 79.8668 200.272 114.062 225.599 141.719C229.985 145.508 233.071 150.579 234.419 156.216C235.768 161.852 235.311 167.771 233.114 173.134H249.273C251.183 166.15 251.15 158.776 249.176 151.81C247.203 144.843 243.364 138.547 238.075 133.603C219.436 113.236 238.075 85.6537 238.601 85.2028C239.12 84.4647 239.466 83.6192 239.614 82.7291C239.762 81.839 239.707 80.9271 239.455 80.0609C239.202 79.1947 238.758 78.3964 238.154 77.7253C237.551 77.0542 236.805 76.5275 235.97 76.1841C234.207 75.2618 232.177 74.9824 230.229 75.3938C228.282 75.8052 226.538 76.8819 225.298 78.4388" fill="#016E01"/>
<path d="M183.964 173.134H199.897C201.773 166.142 201.715 158.771 199.73 151.809C197.744 144.846 193.906 138.554 188.624 133.603C169.985 113.236 188.624 85.6537 189.15 85.2028C189.669 84.4647 190.015 83.6192 190.163 82.7291C190.311 81.839 190.256 80.9271 190.003 80.0609C189.751 79.1947 189.306 78.3964 188.703 77.7253C188.1 77.0542 187.354 76.5275 186.519 76.1841C184.755 75.2618 182.726 74.9824 180.778 75.3938C178.831 75.8052 177.087 76.8819 175.847 78.4388C174.795 79.8668 151.046 114.062 176.373 141.719C180.76 145.508 183.845 150.579 185.194 156.216C186.542 161.852 186.086 167.771 183.889 173.134" fill="#016E01"/>
<path d="M127.221 78.4388C126.169 79.8668 102.42 114.062 127.747 141.719C132.133 145.508 135.219 150.579 136.567 156.216C137.916 161.852 137.459 167.771 135.262 173.134H151.496C153.406 166.144 153.364 158.764 151.377 151.795C149.39 144.826 145.532 138.534 140.223 133.603C121.584 113.236 140.223 85.6537 140.749 85.2028C141.268 84.4647 141.614 83.6192 141.762 82.7291C141.91 81.839 141.855 80.9271 141.602 80.0609C141.35 79.1947 140.905 78.3964 140.302 77.7253C139.699 77.0542 138.953 76.5275 138.118 76.1841C136.354 75.2618 134.325 74.9824 132.377 75.3938C130.43 75.8052 128.686 76.8819 127.446 78.4388" fill="#016E01"/>
</g>
<path d="M163.469 227.661V230.855C163.486 231.214 163.639 231.554 163.897 231.805C164.154 232.056 164.497 232.2 164.857 232.209H200.785C201.157 232.192 201.509 232.036 201.772 231.773C202.036 231.51 202.191 231.157 202.208 230.785V227.314C211.842 224.343 220.486 218.806 227.213 211.297C233.94 203.787 238.496 194.588 240.392 184.687V184.374C240.392 183.997 240.242 183.635 239.975 183.368C239.708 183.101 239.346 182.951 238.969 182.951H125.458C125.268 182.946 125.079 182.98 124.903 183.049C124.726 183.119 124.565 183.223 124.429 183.355C124.293 183.488 124.185 183.646 124.112 183.821C124.038 183.996 124 184.184 124 184.374V185.034C125.994 195.077 130.726 204.374 137.673 211.897C144.62 219.419 153.511 224.875 163.364 227.661" fill="white"/>
<path d="M202 134.492C201.514 135.151 190.545 150.946 202.243 163.72C204.269 165.47 205.694 167.812 206.317 170.416C206.94 173.019 206.729 175.753 205.714 178.23H213.178C214.06 175.004 214.045 171.599 213.133 168.381C212.222 165.163 210.449 162.255 208.005 159.971C199.397 150.564 208.005 137.824 208.248 137.616C208.488 137.275 208.648 136.885 208.716 136.474C208.785 136.062 208.76 135.641 208.643 135.241C208.526 134.841 208.321 134.472 208.042 134.162C207.764 133.852 207.419 133.609 207.034 133.451C206.219 133.025 205.281 132.895 204.382 133.085C203.482 133.276 202.677 133.773 202.104 134.492" fill="white"/>
<path d="M183.013 178.23H190.372C191.238 175 191.212 171.596 190.295 168.38C189.378 165.164 187.605 162.258 185.165 159.971C176.556 150.564 185.165 137.824 185.408 137.616C185.648 137.275 185.808 136.885 185.876 136.474C185.944 136.062 185.919 135.641 185.802 135.241C185.686 134.841 185.48 134.472 185.202 134.162C184.923 133.852 184.578 133.609 184.193 133.451C183.378 133.025 182.441 132.895 181.541 133.085C180.642 133.276 179.837 133.773 179.264 134.492C178.778 135.151 167.809 150.946 179.507 163.72C181.533 165.47 182.958 167.812 183.581 170.416C184.204 173.019 183.993 175.753 182.978 178.23" fill="white"/>
<path d="M156.804 134.492C156.318 135.151 145.349 150.946 157.047 163.72C159.073 165.47 160.498 167.812 161.121 170.416C161.744 173.019 161.533 175.753 160.518 178.23H168.016C168.898 175.001 168.879 171.593 167.961 168.374C167.043 165.155 165.262 162.249 162.809 159.971C154.2 150.564 162.809 137.824 163.052 137.616C163.292 137.275 163.452 136.885 163.52 136.474C163.588 136.062 163.563 135.641 163.446 135.241C163.33 134.841 163.125 134.472 162.846 134.162C162.567 133.852 162.223 133.609 161.837 133.451C161.023 133.025 160.085 132.895 159.185 133.085C158.286 133.276 157.481 133.773 156.908 134.492" fill="white"/>
</svg>
