<svg width="41" height="41" viewBox="0 0 41 41" fill="none" xmlns="http://www.w3.org/2000/svg">
<path opacity="0.1" d="M0 6C0 2.68629 2.68629 0 6 0H35C38.3137 0 41 2.68629 41 6V35C41 38.3137 38.3137 41 35 41H6C2.68629 41 0 38.3137 0 35V6Z" fill="#008000"/>
<path d="M20.4976 15.0352C17.5346 15.0352 15.0796 17.4479 15.0796 20.4531C15.0796 23.4584 17.4923 25.8711 20.4976 25.8711C23.5029 25.8711 25.9156 23.4161 25.9156 20.4531C25.9156 17.4902 23.4605 15.0352 20.4976 15.0352ZM20.4976 23.924C18.5928 23.924 17.0267 22.3579 17.0267 20.4531C17.0267 18.5484 18.5928 16.9822 20.4976 16.9822C22.4023 16.9822 23.9685 18.5484 23.9685 20.4531C23.9685 22.3579 22.4023 23.924 20.4976 23.924Z" fill="#008000"/>
<path d="M26.1274 16.1386C26.8054 16.1386 27.3549 15.589 27.3549 14.9111C27.3549 14.2332 26.8054 13.6836 26.1274 13.6836C25.4495 13.6836 24.8999 14.2332 24.8999 14.9111C24.8999 15.589 25.4495 16.1386 26.1274 16.1386Z" fill="#008000"/>
<path d="M29.3016 11.7354C28.2011 10.5926 26.6349 10 24.8571 10H16.1376C12.455 10 10 12.455 10 16.1376V24.8148C10 26.6349 10.5926 28.2011 11.7778 29.3439C12.9206 30.4444 14.4444 30.9947 16.1799 30.9947H24.8148C26.6349 30.9947 28.1587 30.4021 29.2593 29.3439C30.4021 28.2434 30.9947 26.6772 30.9947 24.8571V16.1376C30.9947 14.3598 30.4021 12.836 29.3016 11.7354ZM29.1323 24.8571C29.1323 26.1693 28.6667 27.2275 27.9048 27.9471C27.1429 28.6667 26.0847 29.0476 24.8148 29.0476H16.1799C14.9101 29.0476 13.8519 28.6667 13.0899 27.9471C12.328 27.1852 11.9471 26.127 11.9471 24.8148V16.1376C11.9471 14.8677 12.328 13.8095 13.0899 13.0476C13.8095 12.328 14.9101 11.9471 16.1799 11.9471H24.8995C26.1693 11.9471 27.2275 12.328 27.9894 13.0899C28.709 13.8519 29.1323 14.9101 29.1323 16.1376V24.8571Z" fill="#008000"/>
</svg>
