<svg width="41" height="41" viewBox="0 0 41 41" fill="none" xmlns="http://www.w3.org/2000/svg">
<path opacity="0.1" d="M0 6C0 2.68629 2.68629 0 6 0H35C38.3137 0 41 2.68629 41 6V35C41 38.3137 38.3137 41 35 41H6C2.68629 41 0 38.3137 0 35V6Z" fill="#008000"/>
<path d="M14.5 16.9259V31H10V16.9259H14.5ZM10 12.8296C10 11.7926 10.9 11 12.25 11C13.6 11 14.4475 11.7926 14.5 12.8296C14.5 13.8667 13.66 14.7037 12.25 14.7037C10.9 14.7037 10 13.8667 10 12.8296ZM31 31H26.5C26.5 31 26.5 24.1407 26.5 23.5926C26.5 22.1111 25.75 20.6296 23.875 20.6H23.815C22 20.6 21.25 22.1259 21.25 23.5926C21.25 24.2667 21.25 31 21.25 31H16.75V16.9259H21.25V18.8222C21.25 18.8222 22.6975 16.9259 25.6075 16.9259C28.585 16.9259 31 18.9481 31 23.0444V31Z" fill="#008000"/>
</svg>
