<svg width="365" height="365" viewBox="0 0 365 365" fill="none" xmlns="http://www.w3.org/2000/svg">
<rect width="365" height="365" rx="6" fill="#008000"/>
<rect x="34" y="34" width="297" height="297" rx="6" fill="#007500"/>
<g opacity="0.75">
<path d="M278.726 136.432C278.726 134.605 279.267 132.819 280.282 131.3C281.297 129.781 282.74 128.597 284.428 127.898C286.116 127.199 287.973 127.016 289.765 127.373C291.557 127.729 293.202 128.609 294.494 129.901C295.786 131.192 296.666 132.838 297.022 134.63C297.379 136.422 297.196 138.279 296.497 139.967C295.797 141.655 294.614 143.097 293.094 144.112C291.575 145.127 289.79 145.669 287.963 145.669C285.513 145.669 283.163 144.696 281.431 142.964C279.699 141.231 278.726 138.882 278.726 136.432Z" fill="#016F01"/>
<path d="M298.836 148.994C301.884 149.283 304.714 150.698 306.773 152.963C308.833 155.227 309.974 158.178 309.973 161.24V186.787C310.035 187.291 309.989 187.803 309.838 188.288C309.687 188.773 309.435 189.22 309.098 189.601C308.761 189.981 308.347 190.285 307.884 190.494C307.421 190.703 306.919 190.81 306.411 190.81C305.903 190.81 305.4 190.703 304.937 190.494C304.474 190.285 304.06 189.981 303.723 189.601C303.387 189.22 303.134 188.773 302.983 188.288C302.832 187.803 302.786 187.291 302.848 186.787V164.829C302.889 164.584 302.873 164.333 302.802 164.095C302.732 163.856 302.608 163.637 302.44 163.454C302.272 163.271 302.065 163.129 301.833 163.038C301.602 162.947 301.354 162.909 301.106 162.929C300.05 162.929 299.839 163.984 299.786 164.723V230.491C299.5 231.632 298.841 232.645 297.913 233.369C296.986 234.093 295.843 234.486 294.666 234.486C293.49 234.486 292.347 234.093 291.419 233.369C290.492 232.645 289.832 231.632 289.546 230.491V192.593C289.561 192.392 289.534 192.191 289.466 192.002C289.397 191.813 289.29 191.641 289.15 191.496C289.011 191.352 288.842 191.238 288.656 191.163C288.469 191.089 288.269 191.054 288.068 191.062C287.868 191.054 287.667 191.089 287.481 191.163C287.294 191.238 287.126 191.352 286.986 191.496C286.847 191.641 286.739 191.813 286.671 192.002C286.603 192.191 286.575 192.392 286.59 192.593V230.491C286.59 231.891 286.034 233.234 285.044 234.223C284.055 235.213 282.712 235.769 281.312 235.769C279.912 235.769 278.57 235.213 277.58 234.223C276.59 233.234 276.034 231.891 276.034 230.491V164.723C276.034 163.984 276.034 162.929 274.767 162.929C273.5 162.929 273.025 164.037 273.025 164.829V186.787C273.025 187.739 272.647 188.652 271.974 189.325C271.301 189.998 270.388 190.376 269.436 190.376C268.484 190.376 267.571 189.998 266.898 189.325C266.225 188.652 265.847 187.739 265.847 186.787V161.24C265.847 158.17 266.996 155.212 269.066 152.946C271.137 150.68 273.98 149.271 277.037 148.994H298.572" fill="#016F01"/>
<path d="M223.99 141.078C223.99 139.351 223.476 137.663 222.514 136.228C221.553 134.794 220.186 133.678 218.589 133.022C216.991 132.366 215.234 132.2 213.542 132.544C211.85 132.889 210.298 133.729 209.085 134.958C207.871 136.186 207.05 137.748 206.726 139.444C206.402 141.14 206.59 142.895 207.265 144.484C207.94 146.074 209.073 147.427 210.519 148.371C211.965 149.315 213.659 149.808 215.386 149.787C217.696 149.787 219.911 148.869 221.544 147.236C223.178 145.603 224.095 143.387 224.095 141.078" fill="#016F01"/>
<path d="M197.704 160.817L190.42 184.464C190.42 184.464 189.153 188.793 192.848 189.743C196.543 190.693 197.599 186.628 197.599 186.628L203.458 166.888C203.458 166.888 203.774 165.41 204.883 165.726C205.991 166.043 205.622 167.679 205.622 167.679L195.434 204.628H204.83V231.019C204.951 232.145 205.484 233.187 206.327 233.944C207.17 234.701 208.263 235.12 209.396 235.12C210.528 235.12 211.621 234.701 212.464 233.944C213.307 233.187 213.84 232.145 213.961 231.019V204.628H216.548V231.019C216.492 232.265 216.933 233.482 217.774 234.403C218.616 235.323 219.788 235.872 221.034 235.928C222.28 235.984 223.497 235.543 224.418 234.701C225.339 233.86 225.887 232.687 225.943 231.441V205.05H235.391L225.257 168.102C225.257 168.102 224.782 166.465 225.943 166.149C227.104 165.832 227.421 167.31 227.421 167.31L233.227 187.051C233.227 187.051 234.388 191.273 238.031 190.165C241.673 189.056 240.406 184.887 240.406 184.887L233.122 161.24C233.122 161.24 230.535 154.431 224.782 154.431H206.308C200.554 154.431 197.968 161.24 197.968 161.24" fill="#016F01"/>
<path d="M171.735 141.077C171.745 139.339 171.239 137.638 170.28 136.189C169.321 134.74 167.954 133.609 166.35 132.939C164.747 132.269 162.981 132.091 161.276 132.428C159.572 132.764 158.006 133.6 156.777 134.828C155.549 136.057 154.713 137.623 154.377 139.328C154.04 141.032 154.218 142.798 154.888 144.401C155.558 146.005 156.689 147.372 158.138 148.331C159.587 149.29 161.288 149.796 163.026 149.786C165.335 149.786 167.551 148.868 169.184 147.235C170.817 145.602 171.735 143.386 171.735 141.077Z" fill="#016F01"/>
<path d="M145.395 160.817L138.164 184.464C138.164 184.464 136.844 188.793 140.539 189.743C144.234 190.693 145.289 186.628 145.289 186.628L151.148 166.888C151.148 166.888 151.465 165.41 152.626 165.726C153.787 166.043 153.312 167.679 153.312 167.679L143.125 204.628H152.626V231.019C152.626 232.223 153.105 233.378 153.956 234.229C154.807 235.08 155.962 235.558 157.166 235.558C158.37 235.558 159.524 235.08 160.375 234.229C161.227 233.378 161.705 232.223 161.705 231.019V204.628H164.291V231.019C164.46 232.044 164.976 232.98 165.751 233.671C166.527 234.362 167.517 234.766 168.554 234.815C169.592 234.865 170.615 234.557 171.453 233.943C172.291 233.329 172.893 232.446 173.159 231.441V205.05H182.66L172.473 168.102C172.473 168.102 172.05 166.465 173.159 166.149C174.267 165.832 174.637 167.31 174.637 167.31L180.496 187.051C180.496 187.051 181.604 191.273 185.246 190.165C188.888 189.056 187.622 184.887 187.622 184.887L180.39 161.24C180.39 161.24 177.804 154.431 172.05 154.431H153.735C148.034 154.431 145.395 161.24 145.395 161.24" fill="#016F01"/>
<path d="M253.338 189.902C254.781 189.902 256.191 189.473 257.39 188.671C258.589 187.868 259.523 186.727 260.072 185.393C260.622 184.059 260.763 182.592 260.478 181.177C260.193 179.763 259.494 178.465 258.47 177.449C257.446 176.432 256.143 175.743 254.726 175.468C253.31 175.192 251.844 175.344 250.514 175.904C249.184 176.463 248.05 177.405 247.256 178.61C246.462 179.814 246.043 181.228 246.054 182.671C246.054 183.625 246.243 184.57 246.609 185.45C246.976 186.331 247.513 187.131 248.191 187.803C248.868 188.475 249.671 189.007 250.554 189.367C251.438 189.727 252.384 189.909 253.338 189.902Z" fill="#016F01"/>
<path d="M235.92 212.493C235.763 212.787 235.666 213.11 235.634 213.442C235.603 213.774 235.637 214.109 235.735 214.428C235.833 214.746 235.993 215.043 236.206 215.299C236.419 215.556 236.68 215.768 236.975 215.924C237.524 216.188 238.153 216.231 238.733 216.044C239.312 215.857 239.798 215.455 240.09 214.921L244.048 202.306C244.048 202.306 244.734 201.461 244.734 202.306V231.97C244.734 232.46 244.832 232.944 245.021 233.396C245.21 233.848 245.487 234.258 245.835 234.601C246.184 234.945 246.598 235.216 247.052 235.399C247.506 235.581 247.992 235.672 248.482 235.665C249.462 235.665 250.402 235.275 251.095 234.583C251.788 233.89 252.177 232.95 252.177 231.97V220.305C252.177 220.305 252.177 218.669 253.338 218.669C254.499 218.669 254.447 220.305 254.447 220.305V232.023C254.447 232.512 254.544 232.997 254.733 233.449C254.922 233.901 255.199 234.31 255.547 234.654C255.896 234.998 256.31 235.269 256.764 235.452C257.218 235.634 257.705 235.724 258.194 235.717C259.174 235.717 260.114 235.328 260.807 234.635C261.5 233.942 261.889 233.003 261.889 232.023V202.358C261.889 201.461 262.364 202.358 262.364 202.358L265.478 211.015C265.908 212.413 266.492 213.758 267.22 215.026C267.553 215.165 267.91 215.237 268.27 215.238C268.63 215.238 268.988 215.168 269.321 215.031C269.654 214.894 269.957 214.692 270.213 214.438C270.468 214.183 270.671 213.881 270.809 213.549C271.046 213.139 271.17 212.675 271.17 212.203C271.17 211.73 271.046 211.266 270.809 210.857C270.809 210.857 266.217 199.455 265.531 197.872C263.895 193.069 260.939 193.121 258.089 193.069C255.238 193.016 253.496 193.069 253.496 193.069C253.496 193.069 251.649 193.069 247.849 193.069C244.048 193.069 242.887 195.127 238.664 205.895C238.084 207.426 236.078 212.44 236.025 212.757L235.92 212.493Z" fill="#016F01"/>
<path d="M93.9844 136.432C93.9844 134.605 93.4426 132.819 92.4277 131.3C91.4127 129.781 89.97 128.597 88.2822 127.898C86.5943 127.199 84.7371 127.016 82.9453 127.373C81.1534 127.729 79.5076 128.609 78.2157 129.901C76.9239 131.192 76.0442 132.838 75.6877 134.63C75.3313 136.422 75.5143 138.279 76.2134 139.967C76.9125 141.655 78.0965 143.097 79.6155 144.112C81.1345 145.127 82.9204 145.669 84.7473 145.669C87.1971 145.669 89.5466 144.696 91.2789 142.964C93.0112 141.231 93.9844 138.882 93.9844 136.432Z" fill="#016F01"/>
<path d="M73.7691 148.994C70.7217 149.283 67.8916 150.698 65.832 152.963C63.7724 155.227 62.6313 158.178 62.6319 161.24V186.787C62.5704 187.291 62.6166 187.803 62.7676 188.288C62.9185 188.773 63.1707 189.22 63.5075 189.601C63.8443 189.981 64.258 190.285 64.7212 190.494C65.1845 190.703 65.6867 190.81 66.1947 190.81C66.7028 190.81 67.205 190.703 67.6682 190.494C68.1315 190.285 68.5452 189.981 68.8819 189.601C69.2187 189.22 69.4709 188.773 69.6219 188.288C69.7728 187.803 69.8191 187.291 69.7576 186.787V164.829C69.7168 164.584 69.7323 164.333 69.8029 164.095C69.8736 163.856 69.9976 163.637 70.1654 163.454C70.3333 163.271 70.5407 163.129 70.7718 163.038C71.0029 162.947 71.2518 162.909 71.4994 162.929C72.5551 162.929 72.7662 163.984 72.819 164.723V230.491C72.624 231.269 72.6089 232.082 72.775 232.867C72.9411 233.652 73.284 234.389 73.7776 235.021C74.2713 235.654 74.9026 236.166 75.6237 236.518C76.3448 236.87 77.1366 237.053 77.939 237.053C78.7414 237.053 79.5332 236.87 80.2543 236.518C80.9754 236.166 81.6067 235.654 82.1003 235.021C82.594 234.389 82.9369 233.652 83.103 232.867C83.2691 232.082 83.254 231.269 83.059 230.491V192.593C83.0439 192.392 83.0714 192.191 83.1396 192.002C83.2079 191.813 83.3153 191.641 83.4548 191.496C83.5944 191.352 83.763 191.238 83.9495 191.163C84.1359 191.089 84.3361 191.054 84.5369 191.062C84.7377 191.054 84.9379 191.089 85.1243 191.163C85.3108 191.238 85.4794 191.352 85.6189 191.496C85.7585 191.641 85.8659 191.813 85.9341 192.002C86.0024 192.191 86.0299 192.392 86.0148 192.593V230.491C86.0148 231.891 86.5709 233.234 87.5608 234.223C88.5507 235.213 89.8932 235.769 91.2931 235.769C92.693 235.769 94.0356 235.213 95.0255 234.223C96.0154 233.234 96.5715 231.891 96.5715 230.491V164.723C96.5715 163.984 96.5715 162.929 97.8383 162.929C99.1051 162.929 99.5801 164.037 99.5801 164.829V186.787C99.5801 187.739 99.9583 188.652 100.631 189.325C101.304 189.998 102.217 190.376 103.169 190.376C104.121 190.376 105.034 189.998 105.707 189.325C106.38 188.652 106.759 187.739 106.759 186.787V161.24C106.758 158.17 105.61 155.212 103.539 152.946C101.468 150.68 98.6255 149.271 95.5686 148.994H73.7691Z" fill="#016F01"/>
<path d="M57.5651 235.876H57.0373C56.7841 235.831 56.5421 235.737 56.3253 235.599C56.1086 235.461 55.9213 235.281 55.7741 235.07C55.627 234.859 55.523 234.621 55.468 234.37C55.413 234.119 55.4082 233.859 55.4538 233.606L63.6352 190.219C63.6793 189.96 63.7751 189.713 63.9169 189.492C64.0586 189.271 64.2434 189.081 64.4601 188.934C64.6769 188.786 64.9212 188.683 65.1785 188.632C65.4358 188.581 65.7008 188.582 65.9577 188.635C66.2094 188.679 66.4497 188.773 66.6642 188.913C66.8786 189.052 67.0628 189.232 67.2057 189.444C67.3486 189.656 67.4473 189.895 67.4959 190.146C67.5444 190.397 67.5419 190.655 67.4884 190.905L59.307 234.293C59.2284 234.71 59.0158 235.09 58.7014 235.376C58.3871 235.662 57.9882 235.837 57.5651 235.876Z" fill="#016F01"/>
<path d="M110.822 186.101C110.513 185.623 110.058 185.257 109.525 185.059C108.991 184.861 108.408 184.84 107.862 185C107.316 185.161 106.836 185.493 106.494 185.948C106.153 186.403 105.967 186.957 105.966 187.526C106.005 187.923 106.093 188.313 106.23 188.687L113.514 201.936C113.791 202.477 113.953 203.07 113.989 203.678V232.128C113.989 233.08 114.367 233.993 115.04 234.666C115.713 235.339 116.626 235.717 117.578 235.717C118.53 235.717 119.443 235.339 120.116 234.666C120.789 233.993 121.167 233.08 121.167 232.128V220.885C121.167 220.885 121.167 219.249 122.223 219.249C123.279 219.249 123.331 220.885 123.331 220.885V232.075C123.331 233.027 123.71 233.94 124.383 234.613C125.056 235.286 125.969 235.664 126.921 235.664C127.873 235.664 128.786 235.286 129.459 234.613C130.132 233.94 130.51 233.027 130.51 232.075V203.678C130.54 203.076 130.683 202.485 130.932 201.936L137.689 189.69C138.042 188.999 138.325 188.274 138.533 187.526C138.533 186.826 138.255 186.155 137.76 185.66C137.265 185.165 136.594 184.887 135.894 184.887C135.444 184.884 135.001 184.993 134.605 185.205C134.208 185.417 133.871 185.725 133.624 186.101C133.624 186.101 129.982 192.329 128.874 193.438C128.612 193.774 128.275 194.044 127.89 194.227C127.505 194.41 127.083 194.502 126.657 194.493H117.842C117.409 194.498 116.98 194.405 116.588 194.223C116.195 194.04 115.848 193.772 115.572 193.438C114.464 192.329 111.086 186.259 110.875 186.101H110.822Z" fill="#016F01"/>
<path d="M122.224 189.902C123.673 189.933 125.098 189.532 126.318 188.748C127.538 187.965 128.496 186.835 129.07 185.504C129.644 184.173 129.808 182.701 129.541 181.277C129.274 179.852 128.588 178.539 127.57 177.507C126.553 176.474 125.25 175.769 123.83 175.481C122.409 175.192 120.935 175.335 119.595 175.889C118.256 176.444 117.113 177.385 116.311 178.593C115.51 179.801 115.088 181.221 115.098 182.67C115.098 184.588 115.86 186.428 117.216 187.784C118.572 189.14 120.411 189.902 122.329 189.902" fill="#016F01"/>
<path d="M122.277 200.142L130.458 206.106L134.364 220.463H122.277H110.137L114.043 206.106L122.277 200.142Z" fill="#016F01"/>
</g>
<path d="M245.855 152.075C245.855 150.873 246.211 149.699 246.879 148.7C247.546 147.701 248.495 146.922 249.605 146.462C250.715 146.003 251.936 145.882 253.115 146.117C254.293 146.351 255.376 146.93 256.225 147.779C257.075 148.629 257.653 149.711 257.888 150.89C258.122 152.068 258.002 153.289 257.542 154.399C257.082 155.509 256.304 156.458 255.305 157.126C254.306 157.793 253.131 158.15 251.93 158.15C250.319 158.15 248.773 157.509 247.634 156.37C246.495 155.231 245.855 153.686 245.855 152.075Z" fill="white"/>
<path d="M259.081 160.336C261.085 160.526 262.946 161.457 264.301 162.946C265.655 164.435 266.406 166.376 266.405 168.389V185.19C266.446 185.522 266.415 185.859 266.316 186.178C266.217 186.497 266.051 186.791 265.829 187.041C265.608 187.291 265.336 187.491 265.031 187.629C264.726 187.766 264.396 187.837 264.062 187.837C263.728 187.837 263.398 187.766 263.093 187.629C262.788 187.491 262.516 187.291 262.295 187.041C262.073 186.791 261.907 186.497 261.808 186.178C261.709 185.859 261.679 185.522 261.719 185.19V170.75C261.746 170.589 261.736 170.424 261.689 170.267C261.643 170.11 261.561 169.966 261.451 169.846C261.34 169.725 261.204 169.632 261.052 169.572C260.9 169.512 260.736 169.487 260.573 169.5C259.879 169.5 259.74 170.194 259.706 170.68V213.933C259.518 214.683 259.084 215.349 258.474 215.825C257.864 216.302 257.112 216.56 256.338 216.56C255.565 216.56 254.813 216.302 254.203 215.825C253.593 215.349 253.159 214.683 252.971 213.933V189.009C252.981 188.877 252.963 188.745 252.918 188.62C252.873 188.496 252.803 188.383 252.711 188.288C252.619 188.193 252.508 188.118 252.386 188.069C252.263 188.02 252.131 187.997 251.999 188.002C251.867 187.997 251.736 188.02 251.613 188.069C251.49 188.118 251.38 188.193 251.288 188.288C251.196 188.383 251.125 188.496 251.08 188.62C251.036 188.745 251.018 188.877 251.027 189.009V213.933C251.027 214.853 250.662 215.736 250.011 216.387C249.36 217.038 248.477 217.404 247.556 217.404C246.635 217.404 245.753 217.038 245.102 216.387C244.451 215.736 244.085 214.853 244.085 213.933V170.68C244.085 170.194 244.085 169.5 243.252 169.5C242.419 169.5 242.106 170.229 242.106 170.75V185.19C242.106 185.816 241.858 186.417 241.415 186.86C240.972 187.302 240.372 187.551 239.746 187.551C239.12 187.551 238.519 187.302 238.077 186.86C237.634 186.417 237.385 185.816 237.385 185.19V168.389C237.386 166.371 238.141 164.425 239.503 162.935C240.864 161.445 242.734 160.518 244.744 160.336H258.907" fill="white"/>
<path d="M209.858 155.13C209.858 153.994 209.52 152.884 208.888 151.941C208.255 150.997 207.357 150.263 206.306 149.832C205.255 149.401 204.1 149.291 202.987 149.518C201.874 149.745 200.854 150.297 200.056 151.105C199.258 151.913 198.718 152.94 198.505 154.056C198.291 155.171 198.415 156.325 198.859 157.37C199.303 158.416 200.048 159.305 200.999 159.926C201.95 160.547 203.064 160.871 204.2 160.857C205.719 160.857 207.176 160.254 208.25 159.18C209.324 158.106 209.928 156.649 209.928 155.13" fill="white"/>
<path d="M192.571 168.112L187.781 183.663C187.781 183.663 186.948 186.51 189.378 187.134C191.808 187.759 192.502 185.086 192.502 185.086L196.355 172.104C196.355 172.104 196.563 171.132 197.292 171.34C198.021 171.548 197.778 172.624 197.778 172.624L191.079 196.923H197.258V214.28C197.337 215.021 197.688 215.706 198.242 216.203C198.797 216.701 199.515 216.977 200.26 216.977C201.005 216.977 201.724 216.701 202.278 216.203C202.832 215.706 203.183 215.021 203.263 214.28V196.923H204.964V214.28C204.927 215.099 205.217 215.9 205.77 216.505C206.324 217.111 207.095 217.471 207.914 217.508C208.734 217.545 209.534 217.255 210.14 216.701C210.745 216.148 211.106 215.377 211.143 214.558V197.201H217.356L210.691 172.902C210.691 172.902 210.379 171.826 211.143 171.618C211.906 171.41 212.115 172.381 212.115 172.381L215.933 185.364C215.933 185.364 216.697 188.141 219.092 187.412C221.487 186.683 220.654 183.941 220.654 183.941L215.864 168.389C215.864 168.389 214.163 163.912 210.379 163.912H198.229C194.446 163.912 192.745 168.389 192.745 168.389" fill="white"/>
<path d="M175.492 155.129C175.499 153.987 175.166 152.868 174.536 151.915C173.905 150.962 173.006 150.218 171.951 149.778C170.897 149.337 169.735 149.22 168.614 149.441C167.493 149.663 166.463 150.212 165.656 151.02C164.848 151.828 164.298 152.858 164.077 153.979C163.856 155.1 163.973 156.261 164.413 157.316C164.853 158.37 165.597 159.27 166.55 159.9C167.503 160.531 168.622 160.864 169.765 160.857C171.284 160.857 172.741 160.253 173.815 159.179C174.889 158.105 175.492 156.648 175.492 155.129Z" fill="white"/>
<path d="M158.17 168.112L153.415 183.663C153.415 183.663 152.547 186.51 154.977 187.134C157.407 187.759 158.101 185.086 158.101 185.086L161.954 172.104C161.954 172.104 162.162 171.132 162.926 171.34C163.69 171.548 163.377 172.624 163.377 172.624L156.678 196.923H162.926V214.28C162.926 215.072 163.241 215.831 163.801 216.391C164.36 216.951 165.12 217.265 165.911 217.265C166.703 217.265 167.463 216.951 168.022 216.391C168.582 215.831 168.897 215.072 168.897 214.28V196.923H170.598V214.28C170.709 214.954 171.048 215.57 171.558 216.024C172.068 216.478 172.719 216.744 173.401 216.777C174.084 216.809 174.757 216.606 175.308 216.203C175.859 215.799 176.255 215.218 176.429 214.558V197.201H182.678L175.978 172.902C175.978 172.902 175.7 171.826 176.429 171.618C177.158 171.41 177.401 172.381 177.401 172.381L181.255 185.364C181.255 185.364 181.984 188.141 184.379 187.412C186.774 186.683 185.941 183.941 185.941 183.941L181.185 168.389C181.185 168.389 179.484 163.912 175.7 163.912H163.655C159.906 163.912 158.17 168.389 158.17 168.389" fill="white"/>
<path d="M229.159 187.239C230.108 187.239 231.035 186.957 231.824 186.429C232.612 185.902 233.226 185.151 233.588 184.274C233.949 183.397 234.042 182.432 233.854 181.501C233.667 180.571 233.207 179.718 232.533 179.049C231.86 178.381 231.003 177.927 230.072 177.746C229.14 177.565 228.176 177.665 227.301 178.033C226.427 178.401 225.681 179.02 225.159 179.813C224.637 180.605 224.361 181.535 224.368 182.484C224.368 183.111 224.492 183.732 224.734 184.312C224.975 184.891 225.328 185.417 225.773 185.859C226.219 186.301 226.747 186.65 227.328 186.887C227.909 187.124 228.531 187.244 229.159 187.239Z" fill="white"/>
<path d="M217.703 202.096C217.6 202.29 217.537 202.502 217.516 202.72C217.495 202.938 217.517 203.159 217.582 203.368C217.646 203.578 217.752 203.773 217.892 203.942C218.032 204.111 218.204 204.25 218.398 204.352C218.758 204.526 219.172 204.554 219.553 204.431C219.934 204.309 220.254 204.044 220.446 203.693L223.049 195.397C223.049 195.397 223.5 194.841 223.5 195.397V214.905C223.5 215.227 223.564 215.546 223.689 215.843C223.813 216.14 223.995 216.41 224.224 216.636C224.454 216.862 224.726 217.04 225.024 217.16C225.323 217.28 225.643 217.34 225.965 217.335C226.609 217.335 227.228 217.079 227.683 216.623C228.139 216.168 228.395 215.55 228.395 214.905V207.234C228.395 207.234 228.395 206.157 229.159 206.157C229.922 206.157 229.888 207.234 229.888 207.234V214.94C229.888 215.262 229.952 215.581 230.076 215.878C230.2 216.175 230.382 216.444 230.612 216.67C230.841 216.897 231.113 217.075 231.412 217.195C231.71 217.315 232.03 217.374 232.352 217.37C232.997 217.37 233.615 217.114 234.07 216.658C234.526 216.202 234.782 215.584 234.782 214.94V195.431C234.782 194.841 235.095 195.431 235.095 195.431L237.143 201.124C237.425 202.043 237.809 202.928 238.288 203.762C238.507 203.853 238.742 203.901 238.979 203.901C239.216 203.902 239.45 203.855 239.67 203.765C239.889 203.675 240.088 203.542 240.256 203.375C240.424 203.208 240.557 203.009 240.649 202.79C240.804 202.521 240.886 202.216 240.886 201.905C240.886 201.594 240.804 201.289 240.649 201.02C240.649 201.02 237.629 193.522 237.177 192.481C236.101 189.322 234.157 189.356 232.283 189.322C230.408 189.287 229.263 189.322 229.263 189.322C229.263 189.322 228.048 189.322 225.548 189.322C223.049 189.322 222.285 190.676 219.508 197.757C219.127 198.764 217.808 202.061 217.773 202.27L217.703 202.096Z" fill="white"/>
<path d="M124.36 152.075C124.36 150.873 124.004 149.699 123.336 148.7C122.669 147.701 121.72 146.922 120.61 146.462C119.5 146.003 118.278 145.882 117.1 146.117C115.922 146.351 114.839 146.93 113.99 147.779C113.14 148.629 112.562 149.711 112.327 150.89C112.093 152.068 112.213 153.289 112.673 154.399C113.133 155.509 113.911 156.458 114.91 157.126C115.909 157.793 117.084 158.15 118.285 158.15C119.896 158.15 121.441 157.509 122.581 156.37C123.72 155.231 124.36 153.686 124.36 152.075Z" fill="white"/>
<path d="M111.065 160.336C109.061 160.526 107.2 161.457 105.846 162.946C104.491 164.435 103.741 166.376 103.741 168.389V185.19C103.701 185.522 103.731 185.859 103.83 186.178C103.93 186.497 104.095 186.791 104.317 187.041C104.538 187.291 104.81 187.491 105.115 187.629C105.42 187.766 105.75 187.837 106.084 187.837C106.418 187.837 106.749 187.766 107.053 187.629C107.358 187.491 107.63 187.291 107.851 187.041C108.073 186.791 108.239 186.497 108.338 186.178C108.437 185.859 108.468 185.522 108.427 185.19V170.75C108.4 170.589 108.411 170.424 108.457 170.267C108.504 170.11 108.585 169.966 108.695 169.846C108.806 169.725 108.942 169.632 109.094 169.572C109.246 169.512 109.41 169.487 109.573 169.5C110.267 169.5 110.406 170.194 110.441 170.68V213.933C110.312 214.445 110.302 214.979 110.412 215.495C110.521 216.011 110.746 216.496 111.071 216.912C111.396 217.328 111.811 217.665 112.285 217.896C112.759 218.128 113.28 218.248 113.808 218.248C114.335 218.248 114.856 218.128 115.33 217.896C115.805 217.665 116.22 217.328 116.544 216.912C116.869 216.496 117.095 216.011 117.204 215.495C117.313 214.979 117.303 214.445 117.175 213.933V189.009C117.165 188.877 117.183 188.745 117.228 188.62C117.273 188.496 117.343 188.383 117.435 188.288C117.527 188.193 117.638 188.118 117.76 188.069C117.883 188.02 118.015 187.997 118.147 188.002C118.279 187.997 118.411 188.02 118.533 188.069C118.656 188.118 118.767 188.193 118.858 188.288C118.95 188.383 119.021 188.496 119.066 188.62C119.111 188.745 119.129 188.877 119.119 189.009V213.933C119.119 214.853 119.485 215.736 120.136 216.387C120.787 217.038 121.669 217.404 122.59 217.404C123.511 217.404 124.394 217.038 125.045 216.387C125.696 215.736 126.061 214.853 126.061 213.933V170.68C126.061 170.194 126.061 169.5 126.894 169.5C127.728 169.5 128.04 170.229 128.04 170.75V185.19C128.04 185.816 128.289 186.417 128.731 186.86C129.174 187.302 129.774 187.551 130.4 187.551C131.027 187.551 131.627 187.302 132.07 186.86C132.512 186.417 132.761 185.816 132.761 185.19V168.389C132.76 166.371 132.005 164.425 130.644 162.935C129.282 161.445 127.412 160.518 125.402 160.336H111.065Z" fill="white"/>
<path d="M100.409 217.474H100.062C99.8952 217.445 99.7361 217.383 99.5935 217.292C99.451 217.201 99.3278 217.083 99.231 216.944C99.1343 216.805 99.0659 216.649 99.0297 216.484C98.9935 216.318 98.9904 216.148 99.0203 215.981L104.401 187.447C104.43 187.277 104.493 187.115 104.586 186.97C104.679 186.824 104.801 186.7 104.943 186.602C105.086 186.505 105.247 186.438 105.416 186.404C105.585 186.37 105.759 186.371 105.928 186.406C106.094 186.435 106.252 186.497 106.393 186.588C106.534 186.68 106.655 186.799 106.749 186.938C106.843 187.078 106.908 187.234 106.94 187.4C106.972 187.565 106.97 187.734 106.935 187.899L101.554 216.433C101.503 216.707 101.363 216.957 101.156 217.145C100.949 217.333 100.687 217.449 100.409 217.474Z" fill="white"/>
<path d="M135.433 184.739C135.23 184.425 134.931 184.185 134.58 184.054C134.229 183.924 133.846 183.91 133.487 184.016C133.127 184.121 132.812 184.34 132.587 184.639C132.363 184.938 132.241 185.302 132.24 185.677C132.265 185.937 132.324 186.194 132.413 186.44L137.204 195.153C137.386 195.509 137.493 195.899 137.516 196.299V215.009C137.516 215.635 137.765 216.235 138.207 216.678C138.65 217.121 139.251 217.369 139.877 217.369C140.503 217.369 141.103 217.121 141.546 216.678C141.988 216.235 142.237 215.635 142.237 215.009V207.615C142.237 207.615 142.237 206.539 142.931 206.539C143.626 206.539 143.66 207.615 143.66 207.615V214.974C143.66 215.6 143.909 216.201 144.352 216.643C144.794 217.086 145.395 217.335 146.021 217.335C146.647 217.335 147.247 217.086 147.69 216.643C148.133 216.201 148.381 215.6 148.381 214.974V196.299C148.401 195.903 148.495 195.514 148.659 195.153L153.102 187.1C153.335 186.645 153.521 186.168 153.658 185.677C153.658 185.216 153.475 184.775 153.149 184.449C152.824 184.124 152.382 183.941 151.922 183.941C151.626 183.939 151.335 184.011 151.074 184.15C150.813 184.29 150.592 184.492 150.429 184.739C150.429 184.739 148.034 188.835 147.305 189.564C147.133 189.785 146.911 189.963 146.658 190.084C146.405 190.204 146.127 190.264 145.847 190.259H140.05C139.765 190.262 139.483 190.201 139.225 190.081C138.967 189.961 138.739 189.784 138.557 189.564C137.829 188.835 135.607 184.844 135.468 184.739H135.433Z" fill="white"/>
<path d="M142.931 187.239C143.885 187.26 144.822 186.996 145.624 186.48C146.426 185.965 147.057 185.222 147.434 184.347C147.812 183.472 147.92 182.504 147.744 181.567C147.568 180.63 147.117 179.766 146.448 179.087C145.778 178.408 144.922 177.944 143.988 177.755C143.053 177.565 142.084 177.659 141.203 178.024C140.322 178.388 139.57 179.008 139.043 179.802C138.516 180.596 138.239 181.53 138.245 182.483C138.245 183.745 138.746 184.954 139.638 185.846C140.53 186.738 141.74 187.239 143.001 187.239" fill="white"/>
<path d="M142.966 193.973L148.347 197.896L150.916 207.338H142.966H134.982L137.551 197.896L142.966 193.973Z" fill="white"/>
</svg>
