<svg width="41" height="41" viewBox="0 0 41 41" fill="none" xmlns="http://www.w3.org/2000/svg">
<path opacity="0.1" d="M0 6C0 2.68629 2.68629 0 6 0H35C38.3137 0 41 2.68629 41 6V35C41 38.3137 38.3137 41 35 41H6C2.68629 41 0 38.3137 0 35V6Z" fill="#008000"/>
<path d="M20.5 10C14.7104 10 10.0001 14.7104 10.0001 20.5C10.0001 22.3078 10.4671 24.0855 11.3527 25.6541L10.017 30.4202C9.97313 30.5768 10.0156 30.7448 10.1288 30.8612C10.216 30.9512 10.3347 31 10.4566 31C10.4931 31 10.5301 30.9954 10.5662 30.9868L15.5404 29.7546C17.0592 30.57 18.7698 31 20.5 31C26.2896 31 31 26.2896 31 20.5C31 14.7104 26.2896 10 20.5 10ZM25.782 24.2051C25.5574 24.8269 24.48 25.3944 23.9623 25.4706C23.4975 25.5386 22.9095 25.5678 22.264 25.3652C21.8728 25.2419 21.3706 25.0785 20.7274 24.8041C18.0234 23.6509 16.2576 20.9625 16.1225 20.7849C15.9878 20.6073 15.0218 19.3418 15.0218 18.032C15.0218 16.7223 15.718 16.0781 15.9654 15.8115C16.2129 15.5449 16.5046 15.4783 16.6844 15.4783C16.8643 15.4783 17.0437 15.4805 17.2012 15.4878C17.3669 15.4961 17.5893 15.4253 17.8079 15.9448C18.0325 16.478 18.5717 17.7878 18.6383 17.9216C18.7059 18.0549 18.7506 18.2105 18.6612 18.3881C18.5717 18.5657 18.527 18.6767 18.3918 18.8323C18.2567 18.988 18.1088 19.1793 17.9873 19.2989C17.8522 19.4317 17.7121 19.5755 17.8691 19.8422C18.0262 20.1088 18.5671 20.9803 19.3688 21.686C20.3982 22.5927 21.267 22.8739 21.5363 23.0072C21.8057 23.1405 21.9632 23.1182 22.1202 22.9406C22.2773 22.7625 22.794 22.1631 22.9735 21.897C23.1529 21.6308 23.3327 21.6746 23.5802 21.7637C23.8276 21.8522 25.1529 22.4959 25.4222 22.6292C25.6916 22.7625 25.8715 22.8292 25.939 22.9401C26.0066 23.0506 26.0066 23.5838 25.782 24.2051Z" fill="#008000"/>
</svg>
